<svg xmlns="http://www.w3.org/2000/svg" fill="none" viewBox="0 0 50 50"><path d="M22.844 4.156s.68 1.453-.282 3.063c-.484.797-12.742 3.406-17.523 10.047-2.93 4.586-7.422 17.867 6.93 26.656 6.445 3.32 9.18 3.219 9.18 3.219s-4.297-3.024-1.563-5.078c2.734-2.055 6.734-3.024 7.812-5.86 1.266.977 3.32 3.024 5.274 2.828-.195-1.265-.68-1.758.875-1.953 1.555-.195 2.344-.195 2.344-.195s-1.461-1.172-3.125-1.266c-1.664-.094-4.782-3.32-4.688-4.687 2.047-1.172 4.688-3.125 6.25-2.54 1.563.587 3.125 1.563 3.414 2.438 0 .586-.289 1.563.977.781 1.265-.78.976-1.265 1.46-2.343.485-1.078.587-1.266-.484-2.149-1.07-.883-3.61-2.93-5.664-2.344-2.054.586-6.343 2.243-8.492.196.875-1.953 2.242-5.078 1.563-7.227 1.265-.976 2.734-2.047 2.93-3.805 1.46-.195 4.585-1.07 4-2.632-.587-1.563-4.743-8.493-11.094-7.125"/><path d="M43.118 20.11c1.07-2.829 2.828-7.618 1.171-7.813-1.656-.195-3.515 4.297-4 5.469-.484 1.172-2.437 7.03-1.367 7.812 1.07.781 4.196-5.469 4.196-5.469z"/><path fill="#DA687D" d="M34.031 12.492c.305-.476.563-.062-.75.031-1.312.094-2.89.5-3.156 1.079-.5 1.07-.672 3.718-2.578 4.304-.094.68 0 2.242 2.68 2.54 2.68.296 2.78-1.462 4.343-1.415 1.563.047 1.414-.531.875-.976-.539-.446-2.39-3.414-2.39-4.39 0-.977.632-.634.976-1.173zM10.055 41.937s-.829-2.195 1.609-3.367c2.437-1.172 4.633-.242 5.078.586.445.828-.727 4.149-4.93 4.196-1.023-.829-1.757-1.414-1.757-1.414z"/><path fill="#DA687D" d="M43.43 13.887c.039.146.02.303.02.468 0 .157-.01.323-.06.479.01.03 0 .078 0 .117-.038.049-.01.088-.019.127.059.059.147.127.107.205-.019.049-.078.069-.136.088-.03.137-.069.293-.098.45 0 .038 0 .097-.01.136-.029.098-.058.186-.087.293-.02.088 0 .254-.098.273-.04.098-.059.176-.108.274-.02.01-.039-.01-.058 0-.03.03-.02.078-.049.107-.02.02-.049.01-.059.03-.029.048-.02.117-.048.185a.461.461 0 00-.108.137c-.049.107-.059.254-.146.342-.02.02-.069.029-.098.058-.02.02-.04.059-.059.088-.029.04-.058.098-.088.147-.097.166-.224.361-.322.547-.01.029-.02.078-.029.107-.03.078-.088.146-.117.224-.05.118-.127.323-.244.43-.01.01-.04.02-.059.04-.01.019-.01.048-.03.077 0 .01-.038.01-.048.03-.02.02-.03.039-.04.058-.038.03-.097.05-.126.088-.02.03-.03.069-.059.108-.029.039-.068.068-.097.117-.088.117-.127.273-.264.322-.03.01-.078.01-.117.02-.03-.03 0-.079-.01-.108 0-.02-.02-.03-.03-.049a.947.947 0 01-.029-.175c0-.05.03-.088.03-.157 0-.049-.01-.117-.01-.175v-.225c0-.068 0-.137-.01-.205.03-.166.049-.293.098-.479.02-.078.068-.224.107-.322.078-.176.156-.38.254-.576.03-.059.078-.108.108-.176.01-.03.02-.078.029-.117.156-.322.371-.606.537-.947.137-.274.273-.528.459-.83.078-.137.146-.284.234-.391.059-.078.157-.234.225-.38.02-.05.02-.099.098-.108.068-.088.127-.196.205-.274.02-.02.049-.03.068-.039.02-.02.03-.049.059-.068.049-.04.136-.078.195-.156.01-.02.02-.04.039-.059.04-.049.108-.176.176-.195h.03" opacity=".7"/><path fill="#DA687D" d="M42.805 15.879c.059.185.069.4.088.605 0 .205-.01.44-.068.674 0 .04-.01.108-.01.156-.049.069-.02.118-.04.176.07.078.157.157.108.274-.029.078-.107.097-.175.136-.06.186-.118.41-.176.616-.01.058-.02.127-.04.185-.048.127-.107.254-.146.4-.039.118-.03.333-.156.352-.059.127-.088.225-.156.352-.03.02-.05-.01-.078 0-.03.039-.04.097-.069.136-.02.02-.049.02-.068.05-.04.058-.03.146-.069.234a.634.634 0 00-.107.127l-.01.02c-.058.155-.078.35-.175.478-.03.039-.079.048-.108.087-.02.03-.039.088-.068.127-.03.059-.069.137-.098.206-.098.234-.244.507-.342.78l-.03.157c-.038.107-.097.215-.126.322-.059.166-.137.46-.293.616-.01.02-.049.039-.068.058-.02.03-.01.069-.04.108-.01.01-.038.02-.058.039-.02.029-.03.058-.049.087-.049.05-.117.079-.166.137-.03.04-.049.098-.088.147-.039.049-.088.107-.136.156l-.176.254a.422.422 0 01-.196.176c-.039.02-.097.01-.146.02-.03-.04 0-.099 0-.147 0-.02-.02-.05-.02-.069 0-.058-.01-.166 0-.224 0-.059.05-.108.069-.196.01-.068 0-.146 0-.224 0-.03.01-.069.01-.117 0-.059 0-.088.01-.166.01-.088 0-.176-.01-.264.039-.205.058-.371.117-.615.02-.108.068-.303.117-.43.039-.127.088-.254.127-.39.039-.137.088-.274.137-.41.029-.089.078-.167.117-.264.02-.05.02-.108.039-.166.039-.118.088-.245.146-.352.054-.108.11-.216.166-.322l.088-.176c.03-.049.059-.108.088-.166.062-.116.12-.233.176-.352.096-.188.197-.373.303-.556.115-.19.232-.38.351-.567.108-.175.215-.37.322-.517.079-.108.206-.303.294-.498.029-.069.029-.127.107-.137.088-.117.156-.254.234-.361.02-.02.05-.04.078-.069.02-.029.04-.068.059-.097.049-.059.156-.118.215-.245.01-.029.01-.058.03-.097.028-.078.097-.264.165-.303h.03" opacity=".7"/><path d="M40.688 18.063s-.781 2.992-.453 5.468l.453-5.468zm.922-2.024c-.055-.203-.446 5.805-.328 6.016.109.203.695-4.742.328-6.016z"/><path fill="#0084de" d="M22.969 4.523s.453 2.594-3.774 3.961c-4.226 1.368-10.062 2.532-14.36 7.68C.54 21.304-.241 29.828 2.688 35.43c2.93 5.593 10.086 12.562 22.977 12.562 12.89 0 23.133-9.89 23.133-16.726 0-3.578-1.961-2.782-2.64.57-.61 3.031-6.29 14.344-20.548 14.344S4.062 37.523 3.15 30.102c-.907-7.422 1.155-13.813 8.648-17.657C19.28 8.61 24.03 10.141 22.992 4.54"/><path fill="#0084de" d="M19.414 24.57s-.844 3.907-4.945 5.79c-4.102 1.882-5.86 2.93-6.446 6.18 1.563-2.602 6.118-3.126 8.657-5.665 2.539-2.54 2.734-6.313 2.734-6.313m1.102-9.046s3.515 4.554 7.68 2.343c4.163-2.21 2.015-7.351 1.952-7.68-.062-.32.454 5.727-2.664 6.766-3.125 1.04-6.96-1.43-6.96-1.43m-9.18 27.22s2.21.124 3.836-1.688c1.625-1.82.71-4.688 3.383-5.727 2.664-1.039 4.492-.39 4.492-.39s-4.75.648-5.14 3.383c-.392 2.734-1.04 3.968-2.08 4.812-1.038.844-2.405.977-2.405.977l-2.078-1.368h-.008z"/><path fill="#0084de" d="M21.383 28.563s3.953-.657 5.758-4.688c1.476-3.297.484-6.148.484-6.148l-2 .289s.828 2.39.195 4.539c-.633 2.148-2.093 4.633-4.437 6m21.297-9.14c-1.407 3.523-3.492 6.054-3.735 5.92-.437-.241-.03-3.32 1.375-6.85 1.407-3.524 3.164-6.212 3.813-5.954.648.25-.047 3.352-1.453 6.883zm2.047-7.08c-1.602-.866-3.579 2.384-5.196 6.18-1.617 3.797-1.804 6.852-.554 7.4 1.664.726 3.234-2.173 4.851-5.97 1.617-3.797 2.344-6.836.899-7.617"/><path fill="#0084de" d="M15.578 31.477s1.008 3.023 6.055 2.406c4.75-.586 6.789-2.414 9.695-4.227 2.078-1.297 1.953-.71 2.211-.648.258.062 1.43.781 2.664.648.063.649-.578.125-.844.711-.125.39.985 2.227 2.602 1.953 2.664-.453 1.914-1.562 2.437-2.797.516-1.234.875-1.882-1.718-3.64-2.016-1.82-3.125-1.36-4.102-1.36-.976 0-3.516 1.36-5.273 1.04-1.758-.32-2.86-.977-2.86-.977l-1.164 1.297s2.14 1.625 4.617 1.039c2.47-.586 4.297-2.469 6.446-1.492 2.148.976 2.562 1.625 3.218 2.11.743.546.813 1.132.29 1.655-.516.516 0 .907-.32 1.492-.321.586-1.954.844-1.954.844s1.781-2.289-.39-2.468c-1.563-.125-2.54-2.211-4.75-1.102-3.172 1.586-7.68 4.297-10.805 4.617-3.04.313-4.164-.648-4.945-2.469-.907.782-1.102 1.368-1.102 1.368"/><path fill="#0084de" d="M26.774 32.125s2.21 1.172 1.562 3.71c-.648 2.54-3.578 4.298-5.469 5.142-1.883.843-3.289 1.96-1.883 2.664 1.172.586 1.82-.907 3.516-1.172 1.688-.258 3.188.39 3.32 1.367-.71-.39-1.234-.39-1.234-.39s.586.39.649 1.038c.062.649-.063.32-.454.32-.976 0-1.101-.843-1.953-.71-2.148.195-2.273 1.101-3.445 1.234-1.172.125-3.125-.516-2.86-2.016.258-1.492 2.274-2.539 4.165-3.32 1.882-.781 4.75-3.25 4.359-5.469-.39-2.21-2.078-1.757-2.078-1.757l1.82-.649-.015.008zm5.546-18.43s.922.461 1.508 2.805c.39.844.906 1.523 1.367 1.719.454.195-.195.39-.515.32-.32-.062-1.008-.352-1.461.031-.453.383-1.563 1.43-3.125 1.172-1.563-.258-2.89-1.25-2.89-1.25s.585 2.586 4.062 2.422c2.414-.11 1.883-1.367 3.515-1.625 1.625-.258 1.453-1.078 1.102-1.758-.547-1.07-2.274-1.328-2.469-4.468-.195-.32-1.414.039-1.086.624m5.563 16.336c.14.141-1.149 3.07-1.149 3.07s-.258.712-.953.462c-.71-.258-.523-.774-.523-.774l1.656-3.008s.906.18.977.25m1.828-4.164l-.32.977-1.063-.813.281-.617 1.102.453z"/><path fill="#0084de" d="M27.813 31.54c-.196.71 2.273 4.882 3.968 4.616 1.688-.258 1.946.258 1.43.586-.516.32-1.43.453-1.297.906.125.454.484.907-.352.782-.843-.125-2.57-1.04-3.609-2.797C27.633 36.672 27.5 37 27.5 37s3.32 3.445 6.703 2.016c-.586-.453-2.21-.32-.844-1.102 1.368-.781 2.407-1.039 3.055.195.32-.062.32-2.93-3.969-2.734-1.492-.195-3.515-3.125-3.515-4.617-.39.39-.907.062-1.102.781m13.235-14.398s-.852 2.562-.493 4.687l.492-4.687zm.874-1.516c-.039-.156-.39 4.469-.312 4.625.078.156.57-3.64.313-4.625zm-11.374-2.563s3.671-.32 3.023-1.789C31.625 6.86 27.89 4.281 20.992 4.54c3.906-1.562 7.227-1.367 10.414 1.367 1.594 1.367 2.328 3.032 2.899 4.305.906 2.031.64 2.219-.36 2.789-1.226.688-3.336.25-3.383.063z"/><path fill="#0084de" d="M30.922 13.61s1.007.695 1.804.124c.36-.375.602-.578-.422-.53l-1.258-.048c-.867-.172-.851.086-.117.453h-.007z"/></svg>