<?xml version="1.0" encoding="UTF-8"?>
<svg id="Modo_de_aislamiento" data-name="Modo de aislamiento" xmlns="http://www.w3.org/2000/svg"
  viewBox="0 0 20 20">
  <path fill="#2b7ec1"
    d="m5.87.12c-1.63.07-3.04.47-4.18,1.61C.55,2.87.15,4.29.08,5.9c-.04,1.01-.31,8.6.46,10.59.51,1.34,1.57,2.39,2.91,2.9.63.25,1.36.41,2.42.46,8.86.4,12.15.18,13.53-3.36.25-.63.42-1.35.46-2.41.41-8.88-.07-10.81-1.61-12.35C17.03.51,15.59-.33,5.87.12m.08,17.94c-.97-.04-1.5-.2-1.85-.34-.87-.33-1.56-1.01-1.89-1.88-.59-1.51-.39-8.7-.34-9.87.05-1.14.28-2.18,1.09-2.98,1-.99,2.28-1.48,11.03-1.08,1.14.05,2.19.28,2.99,1.08,1,.99,1.49,2.29,1.09,11.01-.04.97-.21,1.49-.34,1.84-.9,2.31-2.97,2.63-11.78,2.22" />
  <path fill="none" stroke="#2b7ec1" stroke-linecap="round" stroke-linejoin="round" stroke-width="2"
    d="m8.01,16.77v-1.88l.02-1.33c.03-.42.19-.81.46-1.11,0,0,0,0,.01-.01.01-.01,0-.03-.01-.03h0c-1.78-.22-3.63-.97-3.63-4.24-.01-.81.25-1.59.74-2.2.02-.02.03-.04.05-.06h0s.03-.06.02-.1c0,0,0,0,0,0-.01-.04-.02-.08-.03-.12-.18-.67-.14-1.39.11-2.04,0,0,0,0,0-.01,0-.02.03-.04.05-.05h0c.16-.03.8-.07,2.02.78.04.03.08.05.12.08h0s.06.03.1.02c0,0,0,0,0,0,.07-.02.13-.04.2-.05,1.16-.29,2.37-.29,3.53,0,.06.02.12.03.19.05,0,0,0,0,0,0,.04.01.08,0,.11-.02h0s.07-.05.11-.08c1.22-.84,1.85-.81,2.01-.78h0s.05.02.06.05c0,0,0,0,0,0,.26.65.3,1.37.12,2.05-.01.04-.02.08-.03.12h0s0,.08.02.1c0,0,0,0,0,0,.02.02.03.04.05.06.49.61.75,1.39.74,2.2,0,3.29-1.87,4.02-3.65,4.22h0s-.01.01,0,.02c0,0,0,0,0,0,.18.2.32.44.41.7.09.27.13.56.11.86v2.81" />
  <path fill="#2b7ec1"
    d="m4.13,13.83c.27.04.53.14.76.29.23.15.42.36.55.59.12.21.27.4.46.55s.4.26.64.33c.23.07.47.09.71.06.24-.03.47-.1.68-.22" />
</svg>