<svg xmlns="http://www.w3.org/2000/svg" fill="none" viewBox="0 0 20 20">
  <path fill="#0084DE" fill-rule="evenodd"
    d="M4 0a4 4 0 00-4 4v12a4 4 0 004 4h12a4 4 0 004-4V4a4 4 0 00-4-4H4zM2 4a2 2 0 012-2h12a2 2 0 012 2v12a2 2 0 01-2 2H4a2 2 0 01-2-2V4zm5 5a1 1 0 00-2 0v6a1 1 0 102 0V9zm.5-3.5a1.5 1.5 0 11-3 0 1.5 1.5 0 013 0zM10 8c.34 0 .64.17.82.428A3.51 3.51 0 0112.5 8c2.16 0 3.5 1.926 3.5 3.571V15a1 1 0 01-2 0v-3.43c0-.768-.66-1.571-1.5-1.571-.524 0-1.103.285-1.5.963V15a1 1 0 01-2 0V9a1 1 0 011-1z"
    clip-rule="evenodd" />
</svg>