<svg xmlns="http://www.w3.org/2000/svg" viewBox="0 0 406 88">
  <path xmlns="http://www.w3.org/2000/svg" fill="#0084de"
    d="M46.765 21c-4.158 0-8.244 1.1-11.805 3.226C31.471 22.163 27.385 21 23.235 21 10.42 21 0 31.41 0 44.227c0 12.816 10.419 23.235 23.235 23.235 4.142 0 8.212-1.091 11.765-3.202 3.553 2.111 7.623 3.202 11.765 3.202C59.58 67.462 70 57.043 70 44.227 70 31.411 59.581 21 46.765 21zM35 61.95c-3.672-2.461-6.42-5.894-7.997-9.821l9.056 9.056c-.342.263-.7.518-1.059.765zm2.708-2.166L25.792 47.875a21.345 21.345 0 01-.31-3.648c0-.287.007-.573.015-.86l14.21 14.266a20.422 20.422 0 01-1.999 2.15zm3.29-3.903L25.792 40.619c.2-1.155.486-2.278.868-3.37l15.867 15.868c-.446.955-.956 1.88-1.53 2.764zm2.382-4.955L27.544 35.083c.438-.916.94-1.8 1.506-2.653l15.142 15.143a21.45 21.45 0 01-.812 3.353zm-13.04-20.24c.63-.765 1.315-1.49 2.055-2.175L44.073 40.19c.247 1.314.374 2.66.374 4.038 0 .183 0 .367-.008.558l-14.099-14.1zm3.72-3.553c.295-.223.605-.438.916-.653a20.855 20.855 0 017.806 9.368l-8.722-8.715zM1.952 44.227c0-11.765 9.518-21.283 21.283-21.283 3.52 0 6.898.82 9.965 2.469-6.07 4.349-9.59 11.319-9.59 18.814s3.6 14.465 9.59 18.814c-3.075 1.65-6.524 2.47-9.965 2.47C11.47 65.519 1.952 56 1.952 44.227zM46.765 65.52c-3.52 0-6.898-.82-9.965-2.47 6.07-4.349 9.59-11.318 9.59-18.814s-3.52-14.473-9.59-18.814c3.075-1.649 6.444-2.47 9.965-2.47 11.765 0 21.283 9.52 21.283 21.284C68.056 56 58.538 65.52 46.765 65.52zM90 0h3v88h-3z" />
  <path fill="#0084de"
    d="M156.376 22.571h.914v42.836h-6.34V33.252l-16.506 32.155h-3.598L114.34 33.252v32.155H108V22.571H115.653l16.964 33.127L149.58 22.57h6.796zm16.221 14.622v28.214h-5.883V37.193h5.883zm.286-10.338a3.218 3.218 0 01-3.256 3.255c-1.77 0-3.198-1.428-3.198-3.255a3.193 3.193 0 013.198-3.199c1.828 0 3.256 1.428 3.256 3.199zM206.98 49.13v16.277h-5.883V49.701c0-5.712-1.77-8.225-6.625-8.225-5.483 0-7.71 3.827-7.71 8.796v15.135h-5.883V37.193h5.883v4.569c.8-2.513 4.34-4.798 7.71-5.026 7.654-.571 12.508 3.141 12.508 12.394zm14.565-11.937v28.214h-5.883V37.193h5.883zm.285-10.338a3.218 3.218 0 01-3.255 3.255c-1.77 0-3.199-1.428-3.199-3.255a3.193 3.193 0 013.199-3.199c1.827 0 3.255 1.428 3.255 3.199zm40.837 28.443l4.17 4.17c-3.941 4.34-9.595 6.51-15.821 6.51-12.051 0-21.76-9.538-21.76-21.989 0-12.394 9.709-21.932 21.76-21.932 6.226 0 11.88 2.17 15.878 6.568l-4.17 4.17c-2.512-3.656-7.082-5.483-11.708-5.483-8.853 0-15.421 7.882-15.421 16.677 0 8.053 5.94 16.735 15.421 16.735 4.112 0 9.367-1.6 11.651-5.426zm28.044-17.763l-1.257 4.627c-.4-.229-1.656-.629-2.684-.629-4.855 0-7.14 4.627-7.14 10.338v13.536h-5.882V37.193h5.883v3.998c.685-2.628 3.712-4.512 7.082-4.512 1.542 0 3.198.4 3.998.856zm15.478-.914c8.11 0 11.366 4.912 11.366 9.082v19.704h-5.883v-3.084c-2.056 2.799-5.711 3.598-7.996 3.598-6.454 0-10.68-3.77-10.68-8.795 0-7.025 5.254-9.538 10.68-9.538h7.996v-1.885c0-1.77-.685-4.227-5.483-4.227-2.684 0-5.14 1.428-6.74 3.656l-4.055-3.656c2.685-2.97 6.511-4.855 10.795-4.855zm5.483 19.99v-4.226h-7.196c-3.484 0-5.94 1.77-5.54 4.97.342 2.684 2.513 3.769 5.54 3.769 5.426 0 7.196-2.57 7.196-4.512zm29.072-29.185c-.857-.4-2.285-.914-4.113-.171-2.798 1.256-3.255 2.398-3.255 7.082v2.856h7.368v4.797h-7.368v23.417h-5.883V41.99h-3.427v-4.797h3.427v-2.856c0-4.455 0-5.483 1.713-8.282 1.828-3.027 4.798-4.055 8.168-4.055 1.542 0 2.627.4 3.37.857v4.569zm15.992 33.298c1.828.742 3.255.228 4.112-.171v4.569c-.742.457-1.828.857-3.37.857-3.37 0-6.34-1.086-8.167-4.056-1.714-2.855-1.714-4.397-1.714-8.852V41.99h-3.426v-4.798h3.426v-8.91h5.883v8.91h7.368v4.797h-7.368v11.08c0 4.684.457 6.397 3.256 7.654zm30.785-6.283c.114.343 1.085 3.142-.114 5.997-1.485 3.37-5.426 5.54-10.338 5.54h-.057c-3.941 0-7.54-1.656-10.224-4.283l3.827-3.827c1.599 2.056 3.884 3.084 6.397 3.084 2.798 0 5.14-1.028 5.768-2.513.4-1.028.057-2.113.057-2.227-.685-1.714-3.198-2.056-6.054-2.685-3.826-.856-7.653-1.827-9.138-5.825-.743-2.056-.514-4.455.514-6.454 2.342-4.398 8.167-4.57 8.853-4.57 3.94 0 7.653 1.486 10.28 4.17l-3.826 3.827c-1.6-2.056-3.941-2.97-6.454-2.97-.057 0-3.427.057-4.398 1.942-.343.57-.514 1.542-.229 2.341.572 1.6 3.142 2.114 5.883 2.742 3.713.857 7.768 1.713 9.253 5.711z" />
</svg>