<?xml version="1.0" encoding="UTF-8"?>
<svg id="Modo_de_aislamiento" data-name="Modo de aislamiento" xmlns="http://www.w3.org/2000/svg"
  viewBox="0 0 20 20">
  <path fill="#2b7ec1" stroke="#2b7ec1" d="m14.64,6.99c-.1.08-.15.2-.15.32,0,.11,0,.22,0,.34,0,3.6-2.54,7.33-6.78,7.33-.83,0-1.65-.16-2.42-.48.93-.15,1.81-.56,2.55-1.18.12-.1.17-.27.11-.42-.05-.15-.19-.25-.35-.26-.72-.01-1.36-.43-1.74-1.07.26,0,.54-.05.75-.11.17-.05.28-.21.28-.38,0-.18-.13-.32-.3-.36-.76-.16-1.32-.79-1.51-1.66.22.04.42.06.54.06.17.02.32-.1.38-.26.05-.16,0-.34-.14-.44-.53-.38-1.1-1.09-1.1-1.95,0-.21.03-.42.08-.62,1.33,1.48,3.13,2.37,5.05,2.47.13,0,.24-.04.31-.13.08-.09.11-.21.08-.33-.04-.17-.06-.35-.06-.54,0-1.28.96-2.33,2.14-2.33.59,0,1.14.26,1.55.72.09.1.23.15.37.12.19-.04.39-.09.58-.16-.11.11-.24.21-.37.3-.15.1-.21.29-.15.45s.23.27.41.25c.1-.01.2-.03.3-.05-.12.12-.25.23-.39.34m1.78-1.36c-.11-.13-.3-.16-.45-.09-.03.01-.06.03-.08.04.12-.21.21-.43.28-.66.05-.15,0-.32-.14-.42-.13-.1-.3-.1-.44-.02-.4.25-.82.44-1.27.56-.53-.52-1.24-.82-1.97-.82-1.6,0-2.9,1.39-2.9,3.09,0,.06,0,.13,0,.19-1.73-.22-3.33-1.17-4.44-2.64-.08-.1-.2-.16-.33-.15-.13,0-.25.09-.31.2-.25.47-.39,1-.39,1.54,0,.59.19,1.12.48,1.57-.13.06-.22.19-.22.35v.04c0,.95.34,1.78.91,2.34-.06.02-.12.06-.16.1-.09.1-.12.24-.09.37.28.93.94,1.64,1.76,1.97-.83.47-1.82.66-2.75.55-.18-.03-.34.08-.41.24-.06.16,0,.35.14.45,1.22.84,2.63,1.29,4.08,1.29,4.73,0,7.55-4.12,7.55-8.1,0-.06,0-.12,0-.17.47-.39.87-.85,1.19-1.38.09-.14.07-.33-.04-.46" />
  <path fill="#2b7ec1"
    d="m5.87.12c-1.63.07-3.04.47-4.18,1.61C.55,2.87.15,4.29.08,5.9c-.04,1.01-.31,8.6.46,10.59.51,1.34,1.57,2.39,2.91,2.9.63.25,1.36.41,2.42.46,8.86.4,12.15.18,13.53-3.36.25-.63.42-1.35.46-2.41.41-8.88-.07-10.81-1.61-12.35C17.03.51,15.59-.33,5.87.12m.08,17.94c-.97-.04-1.5-.2-1.85-.34-.87-.33-1.56-1.01-1.89-1.88-.59-1.51-.39-8.7-.34-9.87.05-1.14.28-2.18,1.09-2.98,1-.99,2.28-1.48,11.03-1.08,1.14.05,2.19.28,2.99,1.08,1,.99,1.49,2.29,1.09,11.01-.04.97-.21,1.49-.34,1.84-.9,2.31-2.97,2.63-11.78,2.22" />
</svg>